<?xml version="1.0" encoding="UTF-8" standalone="no"?>
<!DOCTYPE svg PUBLIC "-//W3C//DTD SVG 1.1//EN"
 "http://www.w3.org/Graphics/SVG/1.1/DTD/svg11.dtd">
<!-- Generated by graphviz version 12.2.1 (20241206.2353)
 -->
<!-- Title: G Pages: 1 -->
<svg width="1408pt" height="415pt"
 viewBox="0.00 0.00 1408.00 414.50" xmlns="http://www.w3.org/2000/svg" xmlns:xlink="http://www.w3.org/1999/xlink">
<g id="graph0" class="graph" transform="scale(1 1) rotate(0) translate(4 410.5)">
<title>G</title>
<polygon fill="white" stroke="none" points="-4,4 -4,-410.5 1404,-410.5 1404,4 -4,4"/>
<!-- vqpu_0_launch -->
<g id="node1" class="node">
<title>vqpu_0_launch</title>
<polygon fill="#fdc46f" stroke="#fdc46f" stroke-width="0" points="180,-397.5 0,-397.5 0,-361.5 180,-361.5 180,-397.5"/>
<text text-anchor="middle" x="90" y="-371.77" font-family="times" font-size="18.00">vQPU&#45;0 launch</text>
</g>
<!-- vqpu_0_run -->
<g id="node2" class="node">
<title>vqpu_0_run</title>
<polygon fill="#fdc46f" stroke="#fdc46f" stroke-width="0" points="180,-168 0,-168 0,-132 180,-132 180,-168"/>
<text text-anchor="middle" x="90" y="-142.28" font-family="times" font-size="18.00">vQPU&#45;0 run</text>
</g>
<!-- vqpu_0_launch&#45;&gt;vqpu_0_run -->
<g id="edge1" class="edge">
<title>vqpu_0_launch&#45;&gt;vqpu_0_run</title>
<path fill="none" stroke="black" d="M90,-361.77C90,-323.07 90,-227.01 90,-179.1"/>
<polygon fill="black" stroke="black" points="93.5,-179.27 90,-169.27 86.5,-179.27 93.5,-179.27"/>
</g>
<!-- circuit_wait_vqpu_0 -->
<g id="node8" class="node">
<title>circuit_wait_vqpu_0</title>
<polygon fill="#6ffd6f" stroke="#6ffd6f" stroke-width="0" points="403,-300 187,-300 187,-246 403,-246 403,-300"/>
<text text-anchor="middle" x="295" y="-274.65" font-family="times" font-size="18.00">Circuit :</text>
<text text-anchor="middle" x="295" y="-255.9" font-family="times" font-size="18.00">wait for vQPU&#45;0</text>
</g>
<!-- vqpu_0_launch&#45;&gt;circuit_wait_vqpu_0 -->
<g id="edge16" class="edge">
<title>vqpu_0_launch&#45;&gt;circuit_wait_vqpu_0:w</title>
<path fill="none" stroke="blue" stroke-dasharray="5,2" d="M96.28,-361.55C107.54,-334.17 133.87,-282.44 174.71,-274.14"/>
<polygon fill="blue" stroke="blue" points="174.9,-277.64 184.49,-273.15 174.19,-270.67 174.9,-277.64"/>
<text text-anchor="middle" x="165.49" y="-321.2" font-family="Times,serif" font-size="14.00" fill="blue">vQPU&#45;start event</text>
</g>
<!-- vqpu_0_shutdown -->
<g id="node3" class="node">
<title>vqpu_0_shutdown</title>
<polygon fill="#fdc46f" stroke="#fdc46f" stroke-width="0" points="180,-45 0,-45 0,-9 180,-9 180,-45"/>
<text text-anchor="middle" x="90" y="-19.27" font-family="times" font-size="18.00">vQPU&#45;0 shutdown</text>
</g>
<!-- vqpu_0_run&#45;&gt;vqpu_0_shutdown -->
<g id="edge2" class="edge">
<title>vqpu_0_run&#45;&gt;vqpu_0_shutdown</title>
<path fill="none" stroke="black" d="M90,-132.18C90,-112.49 90,-79.59 90,-56.03"/>
<polygon fill="black" stroke="black" points="93.5,-56.2 90,-46.2 86.5,-56.2 93.5,-56.2"/>
</g>
<!-- circuit_run -->
<g id="node10" class="node">
<title>circuit_run</title>
<polygon fill="#6ffd6f" stroke="#6ffd6f" stroke-width="0" points="689,-177 473,-177 473,-123 689,-123 689,-177"/>
<text text-anchor="middle" x="581" y="-142.28" font-family="times" font-size="18.00">Circuits: run</text>
</g>
<!-- vqpu_0_run&#45;&gt;circuit_run -->
<g id="edge21" class="edge">
<title>vqpu_0_run:e&#45;&gt;circuit_run:w</title>
<path fill="none" stroke="#ff5100" stroke-width="2" stroke-dasharray="1,5" d="M186.19,-161.79C185.55,-167.06 185,-172.98 189,-177 222.95,-211.09 357,-235.74 401.62,-217.75 437.33,-203.36 430.91,-161.22 459.27,-151.86"/>
<polygon fill="#ff5100" stroke="#ff5100" stroke-width="2" points="189.45,-160.51 182.22,-152.77 183.04,-163.33 189.45,-160.51"/>
<polygon fill="#ff5100" stroke="#ff5100" stroke-width="2" points="459.61,-155.34 469,-150.44 458.6,-148.42 459.61,-155.34"/>
<text text-anchor="middle" x="363" y="-214.7" font-family="Times,serif" font-size="14.00" fill="#ff5100">vQPU circuits</text>
<text text-anchor="middle" x="363" y="-198.2" font-family="Times,serif" font-size="14.00" fill="#ff5100"> results</text>
</g>
<!-- vqpu_1_launch -->
<g id="node4" class="node">
<title>vqpu_1_launch</title>
<polygon fill="#fdc46f" stroke="#fdc46f" stroke-width="0" points="612,-397.5 432,-397.5 432,-361.5 612,-361.5 612,-397.5"/>
<text text-anchor="middle" x="522" y="-371.77" font-family="times" font-size="18.00">vQPU&#45;1 launch</text>
</g>
<!-- vqpu_1_run -->
<g id="node5" class="node">
<title>vqpu_1_run</title>
<polygon fill="#fdc46f" stroke="#fdc46f" stroke-width="0" points="378,-168 198,-168 198,-132 378,-132 378,-168"/>
<text text-anchor="middle" x="288" y="-142.28" font-family="times" font-size="18.00">vQPU&#45;1 run</text>
</g>
<!-- vqpu_1_launch&#45;&gt;vqpu_1_run -->
<g id="edge3" class="edge">
<title>vqpu_1_launch&#45;&gt;vqpu_1_run</title>
<path fill="none" stroke="black" d="M503.2,-361.58C487.4,-346.6 465.06,-323.52 450,-300 422.72,-257.39 442.49,-230.06 406,-195 396.33,-185.71 384.52,-178.35 372.16,-172.52"/>
<polygon fill="black" stroke="black" points="373.63,-169.34 363.06,-168.58 370.84,-175.76 373.63,-169.34"/>
</g>
<!-- circuit_wait_vqpu_1 -->
<g id="node9" class="node">
<title>circuit_wait_vqpu_1</title>
<polygon fill="#6ffd6f" stroke="#6ffd6f" stroke-width="0" points="675,-300 459,-300 459,-246 675,-246 675,-300"/>
<text text-anchor="middle" x="567" y="-274.65" font-family="times" font-size="18.00">Circuit :</text>
<text text-anchor="middle" x="567" y="-255.9" font-family="times" font-size="18.00">wait for vQPU&#45;1</text>
</g>
<!-- vqpu_1_launch&#45;&gt;circuit_wait_vqpu_1 -->
<g id="edge17" class="edge">
<title>vqpu_1_launch&#45;&gt;circuit_wait_vqpu_1:w</title>
<path fill="none" stroke="blue" stroke-dasharray="5,2" d="M515.3,-361.63C509.51,-348.6 500.17,-330.71 488,-318 477.51,-307.04 466.62,-313.12 459,-300 455.98,-294.81 452.73,-288.06 451.74,-282.61"/>
<polygon fill="blue" stroke="blue" points="454.64,-284.56 457.17,-274.27 448.78,-280.73 454.64,-284.56"/>
<text text-anchor="middle" x="548.03" y="-321.2" font-family="Times,serif" font-size="14.00" fill="blue">vQPU&#45;start event</text>
</g>
<!-- cpu_circuit -->
<g id="node14" class="node">
<title>cpu_circuit</title>
<polygon fill="#3c7de6" stroke="#3c7de6" stroke-width="0" points="923,-168 707,-168 707,-132 923,-132 923,-168"/>
<text text-anchor="middle" x="815" y="-142.28" font-family="times" font-size="18.00">CPU flow: run circuits</text>
</g>
<!-- vqpu_1_launch&#45;&gt;cpu_circuit -->
<g id="edge20" class="edge">
<title>vqpu_1_launch&#45;&gt;cpu_circuit:w</title>
<path fill="none" stroke="blue" stroke-dasharray="5,2" d="M590.57,-361.62C623.92,-349.86 661.55,-330.62 684,-300 688.16,-294.32 694.85,-193.32 701.86,-160.33"/>
<polygon fill="blue" stroke="blue" points="704.96,-161.99 705.44,-151.4 698.47,-159.38 704.96,-161.99"/>
<text text-anchor="middle" x="738.5" y="-267.95" font-family="Times,serif" font-size="14.00" fill="blue">vQPU&#45;start event</text>
</g>
<!-- vqpu_1_shutdown -->
<g id="node6" class="node">
<title>vqpu_1_shutdown</title>
<polygon fill="#fdc46f" stroke="#fdc46f" stroke-width="0" points="378,-45 198,-45 198,-9 378,-9 378,-45"/>
<text text-anchor="middle" x="288" y="-19.27" font-family="times" font-size="18.00">vQPU&#45;1 shutdown</text>
</g>
<!-- vqpu_1_run&#45;&gt;vqpu_1_shutdown -->
<g id="edge4" class="edge">
<title>vqpu_1_run&#45;&gt;vqpu_1_shutdown</title>
<path fill="none" stroke="black" d="M288,-132.18C288,-112.49 288,-79.59 288,-56.03"/>
<polygon fill="black" stroke="black" points="291.5,-56.2 288,-46.2 284.5,-56.2 291.5,-56.2"/>
</g>
<!-- vqpu_1_run&#45;&gt;circuit_run -->
<g id="edge22" class="edge">
<title>vqpu_1_run:e&#45;&gt;circuit_run:w</title>
<path fill="none" stroke="#ff5100" stroke-width="2" stroke-dasharray="1,5" d="M384.49,-158.98C385.06,-159.79 385.81,-160.49 386.88,-161 417.85,-175.81 433.15,-175.81 464.12,-161 465.19,-160.49 465.94,-159.79 466.51,-158.98"/>
<polygon fill="#ff5100" stroke="#ff5100" stroke-width="2" points="388.47,-158.51 379.77,-152.45 382.79,-162.61 388.47,-158.51"/>
<polygon fill="#ff5100" stroke="#ff5100" stroke-width="2" points="468.21,-162.61 471.23,-152.45 462.53,-158.51 468.21,-162.61"/>
<text text-anchor="middle" x="425.5" y="-191.81" font-family="Times,serif" font-size="14.00" fill="#ff5100">vQPU circuits</text>
<text text-anchor="middle" x="425.5" y="-175.31" font-family="Times,serif" font-size="14.00" fill="#ff5100"> results</text>
</g>
<!-- vqpu_1_run&#45;&gt;cpu_circuit -->
<g id="edge23" class="edge">
<title>vqpu_1_run:e&#45;&gt;cpu_circuit:w</title>
<path fill="none" stroke="#ff5100" stroke-width="2" stroke-dasharray="1,5" d="M391.69,-151.3C428.29,-159.41 426.21,-203.37 469.38,-217.75 518.33,-234.06 661.05,-213.03 698,-177 702.06,-173.04 701.51,-167.13 700.87,-161.84"/>
<polygon fill="#ff5100" stroke="#ff5100" stroke-width="2" points="392.32,-147.84 382.01,-150.31 391.6,-154.8 392.32,-147.84"/>
<polygon fill="#ff5100" stroke="#ff5100" stroke-width="2" points="704.03,-163.34 704.8,-152.78 697.61,-160.56 704.03,-163.34"/>
<text text-anchor="middle" x="508" y="-214.7" font-family="Times,serif" font-size="14.00" fill="#ff5100">vQPU circuits</text>
<text text-anchor="middle" x="508" y="-198.2" font-family="Times,serif" font-size="14.00" fill="#ff5100"> results</text>
</g>
<!-- circuit_start -->
<g id="node7" class="node">
<title>circuit_start</title>
<polygon fill="#6ffd6f" stroke="#6ffd6f" stroke-width="0" points="414,-406.5 198,-406.5 198,-352.5 414,-352.5 414,-406.5"/>
<text text-anchor="middle" x="306" y="-371.77" font-family="times" font-size="18.00">Circuit : start</text>
</g>
<!-- circuit_start&#45;&gt;circuit_wait_vqpu_0 -->
<g id="edge5" class="edge">
<title>circuit_start&#45;&gt;circuit_wait_vqpu_0</title>
<path fill="none" stroke="black" d="M303.28,-352.67C301.96,-340.11 300.35,-324.78 298.9,-311.01"/>
<polygon fill="black" stroke="black" points="302.41,-310.98 297.88,-301.4 295.45,-311.71 302.41,-310.98"/>
</g>
<!-- circuit_start&#45;&gt;circuit_wait_vqpu_1 -->
<g id="edge6" class="edge">
<title>circuit_start&#45;&gt;circuit_wait_vqpu_1</title>
<path fill="none" stroke="black" d="M370.85,-352.53C407.56,-337.84 453.64,-319.39 491.91,-304.07"/>
<polygon fill="black" stroke="black" points="493.09,-307.36 501.08,-300.39 490.49,-300.86 493.09,-307.36"/>
</g>
<!-- circuit_wait_vqpu_0&#45;&gt;circuit_run -->
<g id="edge7" class="edge">
<title>circuit_wait_vqpu_0:s&#45;&gt;circuit_run:n</title>
<path fill="none" stroke="black" d="M295,-246C295,-220.76 299.05,-209.09 320,-195 341.44,-180.59 530.89,-200.53 572.81,-184.75"/>
<polygon fill="black" stroke="black" points="575.05,-187.46 579.9,-178.04 570.23,-182.37 575.05,-187.46"/>
</g>
<!-- circuit_wait_vqpu_1&#45;&gt;circuit_run -->
<g id="edge8" class="edge">
<title>circuit_wait_vqpu_1:s&#45;&gt;circuit_run:n</title>
<path fill="none" stroke="black" d="M567,-246C567,-218.86 577.53,-210.43 580.32,-188.27"/>
<polygon fill="black" stroke="black" points="583.8,-188.7 580.91,-178.51 576.82,-188.28 583.8,-188.7"/>
</g>
<!-- circuit_finish -->
<g id="node11" class="node">
<title>circuit_finish</title>
<polygon fill="#6ffd6f" stroke="#6ffd6f" stroke-width="0" points="612,-54 396,-54 396,0 612,0 612,-54"/>
<text text-anchor="middle" x="504" y="-19.27" font-family="times" font-size="18.00">Circuits: finish</text>
</g>
<!-- circuit_run&#45;&gt;circuit_finish -->
<g id="edge9" class="edge">
<title>circuit_run&#45;&gt;circuit_finish</title>
<path fill="none" stroke="black" d="M564.48,-123.04C553.42,-105.66 538.71,-82.55 526.57,-63.47"/>
<polygon fill="black" stroke="black" points="529.63,-61.75 521.3,-55.19 523.72,-65.51 529.63,-61.75"/>
</g>
<!-- circuit_finish&#45;&gt;vqpu_0_run -->
<g id="edge18" class="edge">
<title>circuit_finish:n&#45;&gt;vqpu_0_run:s</title>
<path fill="none" stroke="blue" stroke-dasharray="5,2" d="M504,-54C504,-71.96 198.33,-66.44 181.25,-72 161.61,-78.4 108.79,-99.36 93.94,-120.4"/>
<polygon fill="blue" stroke="blue" points="90.73,-118.99 90.53,-129.58 97.29,-121.42 90.73,-118.99"/>
<text text-anchor="middle" x="244.62" y="-91.7" font-family="Times,serif" font-size="14.00" fill="blue">circuit complete</text>
<text text-anchor="middle" x="244.62" y="-75.2" font-family="Times,serif" font-size="14.00" fill="blue"> vQPU shutdown event</text>
</g>
<!-- circuit_finish&#45;&gt;vqpu_1_run -->
<g id="edge19" class="edge">
<title>circuit_finish:n&#45;&gt;vqpu_1_run:s</title>
<path fill="none" stroke="blue" stroke-dasharray="5,2" d="M504,-54C504,-76.96 424,-64.65 402.25,-72 378.67,-79.97 309.48,-97.14 292.03,-120.32"/>
<polygon fill="blue" stroke="blue" points="288.79,-118.99 288.53,-129.58 295.34,-121.46 288.79,-118.99"/>
<text text-anchor="middle" x="465.62" y="-91.7" font-family="Times,serif" font-size="14.00" fill="blue">circuit complete</text>
<text text-anchor="middle" x="465.62" y="-75.2" font-family="Times,serif" font-size="14.00" fill="blue"> vQPU shutdown event</text>
</g>
<!-- cpu_start -->
<g id="node12" class="node">
<title>cpu_start</title>
<polygon fill="#3c7de6" stroke="#3c7de6" stroke-width="0" points="1148,-397.5 932,-397.5 932,-361.5 1148,-361.5 1148,-397.5"/>
<text text-anchor="middle" x="1040" y="-371.77" font-family="times" font-size="18.00">CPU flow : start</text>
</g>
<!-- cpu_run -->
<g id="node13" class="node">
<title>cpu_run</title>
<polygon fill="#3c7de6" stroke="#3c7de6" stroke-width="0" points="1148,-291 932,-291 932,-255 1148,-255 1148,-291"/>
<text text-anchor="middle" x="1040" y="-265.27" font-family="times" font-size="18.00">CPU flow: run</text>
</g>
<!-- cpu_start&#45;&gt;cpu_run -->
<g id="edge10" class="edge">
<title>cpu_start&#45;&gt;cpu_run</title>
<path fill="none" stroke="black" d="M1040,-361.71C1040,-345.64 1040,-321.09 1040,-302.04"/>
<polygon fill="black" stroke="black" points="1043.5,-302.26 1040,-292.26 1036.5,-302.26 1043.5,-302.26"/>
</g>
<!-- cpu_run&#45;&gt;cpu_circuit -->
<g id="edge12" class="edge">
<title>cpu_run:w&#45;&gt;cpu_circuit</title>
<path fill="none" stroke="black" d="M931,-273C879.09,-273 843.37,-214.27 826.36,-178.3"/>
<polygon fill="black" stroke="black" points="829.62,-177.01 822.31,-169.34 823.24,-179.9 829.62,-177.01"/>
</g>
<!-- cpu_finish -->
<g id="node15" class="node">
<title>cpu_finish</title>
<polygon fill="#3c7de6" stroke="#3c7de6" stroke-width="0" points="1157,-168 941,-168 941,-132 1157,-132 1157,-168"/>
<text text-anchor="middle" x="1049" y="-142.28" font-family="times" font-size="18.00">CPU flow: finish</text>
</g>
<!-- cpu_run&#45;&gt;cpu_finish -->
<g id="edge13" class="edge">
<title>cpu_run&#45;&gt;cpu_finish</title>
<path fill="none" stroke="black" d="M1041.25,-255.18C1042.72,-235.49 1045.16,-202.59 1046.91,-179.03"/>
<polygon fill="black" stroke="black" points="1050.4,-179.42 1047.65,-169.19 1043.41,-178.9 1050.4,-179.42"/>
</g>
<!-- gpu_start -->
<g id="node16" class="node">
<title>gpu_start</title>
<polygon fill="#3ce6e6" stroke="#3ce6e6" stroke-width="0" points="1400,-291 1184,-291 1184,-255 1400,-255 1400,-291"/>
<text text-anchor="middle" x="1292" y="-265.27" font-family="times" font-size="18.00">GPU flow : start</text>
</g>
<!-- cpu_run&#45;&gt;gpu_start -->
<g id="edge11" class="edge">
<title>cpu_run:e&#45;&gt;gpu_start:w</title>
<path fill="none" stroke="black" d="M1148,-273C1159.38,-273 1164.68,-273 1172.55,-273"/>
<polygon fill="black" stroke="black" points="1172.49,-276.5 1182.49,-273 1172.49,-269.5 1172.49,-276.5"/>
</g>
<!-- gpu_run -->
<g id="node17" class="node">
<title>gpu_run</title>
<polygon fill="#3ce6e6" stroke="#3ce6e6" stroke-width="0" points="1400,-168 1184,-168 1184,-132 1400,-132 1400,-168"/>
<text text-anchor="middle" x="1292" y="-142.28" font-family="times" font-size="18.00">GPU flow: run</text>
</g>
<!-- gpu_start&#45;&gt;gpu_run -->
<g id="edge14" class="edge">
<title>gpu_start&#45;&gt;gpu_run</title>
<path fill="none" stroke="black" d="M1292,-255.18C1292,-235.49 1292,-202.59 1292,-179.03"/>
<polygon fill="black" stroke="black" points="1295.5,-179.2 1292,-169.2 1288.5,-179.2 1295.5,-179.2"/>
</g>
<!-- gpu_finish -->
<g id="node18" class="node">
<title>gpu_finish</title>
<polygon fill="#3ce6e6" stroke="#3ce6e6" stroke-width="0" points="1400,-45 1184,-45 1184,-9 1400,-9 1400,-45"/>
<text text-anchor="middle" x="1292" y="-19.27" font-family="times" font-size="18.00">GPU flow: finish</text>
</g>
<!-- gpu_run&#45;&gt;gpu_finish -->
<g id="edge15" class="edge">
<title>gpu_run&#45;&gt;gpu_finish</title>
<path fill="none" stroke="black" d="M1292,-132.18C1292,-112.49 1292,-79.59 1292,-56.03"/>
<polygon fill="black" stroke="black" points="1295.5,-56.2 1292,-46.2 1288.5,-56.2 1295.5,-56.2"/>
</g>
</g>
</svg>
